<svg version="1.2" xmlns="http://www.w3.org/2000/svg" viewBox="0 0 2168 270" width="100%" >
	<title>CEO - Toolkit</title>
	<style>
		.s0 { fill: #ffffff } 
		.s1 { fill: #23d892 } 
	</style>
	<g id="g8">
		<g id="g10">
			<path id="path14" fill-rule="evenodd" class="s0" d="m569.3 167.1c-5.3 16.2-14.5 31-26.7 43-12.1 12-27 21-43.2 26.2-16.4 5.2-33.7 6.4-50.6 3.6-16.7-2.7-32.8-9.6-46.4-19.7 8.9-11.3 16-23.8 21.2-37.3 9.1 7.9 20.3 13.1 32.2 15.1 11.9 2.1 24.2 0.7 35.4-3.8 11.2-4.6 21-12 28.2-21.8 7.2-9.7 11.5-21.2 12.7-33.3 1-12-1.3-24.1-6.5-35-5.4-10.9-13.7-20-24-26.5-10.2-6.4-22-9.9-34-10-12.1-0.3-24 3-34.5 9.1l-183.6 106c8.8 7.8 19.6 12.9 31.1 15.1 11.6 2.2 23.5 1.3 34.5-2.8 11-3.9 20.8-10.9 28.2-19.9 7.5-9 12.5-19.8 14.3-31.4l42.4-24.5q0.9 7 0.9 14c0 22.1-6.7 43.5-19.2 61.6-12.5 18-30.2 31.9-50.8 39.7-20.6 7.7-43 9.1-64.3 3.7-21.3-5.3-40.6-17.1-55.1-33.6l-38 22c-16.9 9.8-36 15-55.6 14.8-19.5-0.1-38.7-5.6-55.4-15.7-16.6-10.2-30.3-24.7-39.4-42-9.1-17.3-13.4-36.7-12.3-56.2 1-19.6 7.3-38.4 18.2-54.7 11-16.1 26-29.2 43.7-37.4 17.7-8.4 37.3-11.7 56.7-9.9 19.5 2 38 9.1 53.8 20.7-9.1 11.3-16.2 23.9-21.4 37.4-9.1-8-20.3-13.1-32.2-15.2-11.9-2-24.1-0.6-35.4 3.9-11.2 4.6-20.9 12-28.1 21.8-7.2 9.7-11.6 21.2-12.7 33.3-1.1 12 1.2 24.1 6.5 35 5.4 10.9 13.6 20 23.9 26.4 10.2 6.5 22 10 34.1 10.1 12.1 0.3 24-3 34.4-9.1l38-21.9c-8-23.7-7.6-49.4 1.2-72.8 8.8-23.4 25.5-43 47.2-55.5 21.6-12.5 46.9-17.1 71.5-13 24.7 4 47.2 16.5 63.7 35.3l38-22c16.5-9.7 35.5-14.9 54.6-14.9h0.1c17.1 0 34 4.1 49.2 11.9 15.3 7.8 28.4 19.1 38.4 32.9 10 13.9 16.6 30 19.2 46.8 2.7 16.9 1.2 34.2-4.1 50.5zm-233.4-83.4c-9.4-8.3-21.1-13.7-33.7-15.5-12.5-1.9-25.2 0-36.7 5.2-11.5 5.1-21.3 13.6-28.1 24.2-6.8 10.6-10.4 23-10.3 35.6q0 6.4 1.2 12.7z"/>
			<path id="path16" class="s0" d="m824.8 33h-168.8v35h64.6v168h39.6v-168h64.6z"/>
			<path id="path18" class="s0" d="m1421.3 201v-168h-39.1v203h28.9 10.2 92.9v-35z"/>
			<path id="path20" class="s0" d="m1760.6 236l-90.4-106.5 87.3-96.5h-49l-81 91.8v-91.8h-39v203h39v-100.4l83.5 100.4z"/>
			<path id="path22" class="s0" d="m1827.4 33h39.1v203h-39.1z"/>
			<path id="path24" class="s0" d="m2108.2 33h-168.8v35h64.6v168h39.6v-168h64.6z"/>
			<path id="path26" class="s1" d="m1201.2 30c-33 0-62.6 17.2-96.2 55.7l-1.9 2.2c-8.9 10.6-17.7 21.7-23.3 28.9l-4.7 6.1q-4.1 5.5-8.3 10.8l-0.8 1.1c-1.7 1.9-3.4 4.1-4.8 5.8l-3 4.2q-2.2 3-4.4 5.5l-0.6 0.6c-21.1 26.3-42.4 50.1-72.3 50.1-36.6 0-66.3-29.9-66.3-66.5 0-36.6 29.7-66.5 66.3-66.5 25.5 0 44.6 17.7 60.1 35.2l23.9-30c-18.9-20.2-45.2-43.2-84-43.2-57.7 0-104.5 46.8-104.5 104.5 0 57.7 46.8 104.5 104.5 104.5 41.8 0 70.4-26.9 92.8-52.9l2.8-3.4q0.3-0.5 0.5-0.8c6.7-7.8 12.5-15.5 17.8-22.5l0.5-0.5 30-38.3c21-26 46.8-52.6 75.9-52.6 36.9 0 66.6 29.9 66.6 66.5 0 36.6-29.7 66.5-66.6 66.5-25.5 0-47.1-20.2-61.2-35.7l-23.9 30.2c28.9 29.6 56 43.5 85.1 43.5 57.7 0 104.5-46.8 104.5-104.5 0-57.7-46.8-104.5-104.5-104.5z"/>
		</g>
	</g>
</svg>